<svg width="20" height="19" viewBox="0 0 20 19" fill="none" xmlns="http://www.w3.org/2000/svg">
<path d="M13.4009 9.65082C13.4843 9.56364 13.5497 9.46084 13.5934 9.34832C13.6851 9.12514 13.6851 8.87482 13.5934 8.65165C13.5497 8.53913 13.4843 8.43633 13.4009 8.34915L10.6509 5.59915C10.4783 5.42654 10.2442 5.32957 10 5.32957C9.75593 5.32957 9.52182 5.42654 9.34921 5.59915C9.1766 5.77176 9.07963 6.00587 9.07963 6.24998C9.07963 6.49409 9.1766 6.7282 9.34921 6.90082L10.5409 8.08332H7.25004C7.00693 8.08332 6.77377 8.17989 6.60186 8.3518C6.42996 8.52371 6.33338 8.75687 6.33338 8.99998C6.33338 9.2431 6.42996 9.47626 6.60186 9.64816C6.77377 9.82007 7.00693 9.91665 7.25004 9.91665H10.5409L9.34921 11.0991C9.26329 11.1844 9.1951 11.2858 9.14856 11.3975C9.10202 11.5092 9.07806 11.629 9.07806 11.75C9.07806 11.871 9.10202 11.9908 9.14856 12.1025C9.1951 12.2142 9.26329 12.3156 9.34921 12.4008C9.43443 12.4867 9.53581 12.5549 9.64752 12.6015C9.75922 12.648 9.87903 12.672 10 12.672C10.1211 12.672 10.2409 12.648 10.3526 12.6015C10.4643 12.5549 10.5657 12.4867 10.6509 12.4008L13.4009 9.65082ZM19.1667 8.99998C19.1667 7.18699 18.6291 5.41471 17.6218 3.90726C16.6146 2.39981 15.183 1.22489 13.508 0.531088C11.833 -0.162715 9.98988 -0.344246 8.21172 0.00945204C6.43356 0.36315 4.80021 1.23619 3.51823 2.51817C2.23625 3.80015 1.36321 5.4335 1.00951 7.21166C0.655815 8.98981 0.837346 10.8329 1.53115 12.5079C2.22495 14.1829 3.39987 15.6145 4.90732 16.6218C6.41477 17.629 8.18705 18.1666 10 18.1666C12.4312 18.1666 14.7628 17.2009 16.4819 15.4818C18.2009 13.7627 19.1667 11.4311 19.1667 8.99998ZM2.66671 8.99998C2.66671 7.54959 3.0968 6.13176 3.9026 4.9258C4.7084 3.71984 5.85371 2.77991 7.1937 2.22487C8.53369 1.66982 10.0082 1.5246 11.4307 1.80756C12.8532 2.09052 14.1599 2.78895 15.1855 3.81453C16.2111 4.84012 16.9095 6.14679 17.1925 7.56932C17.4754 8.99185 17.3302 10.4663 16.7752 11.8063C16.2201 13.1463 15.2802 14.2916 14.0742 15.0974C12.8683 15.9032 11.4504 16.3333 10 16.3333C8.05512 16.3333 6.18986 15.5607 4.81459 14.1854C3.43933 12.8102 2.66671 10.9449 2.66671 8.99998Z" fill="#252525"/>
</svg>
