<svg width="101" height="101" viewBox="0 0 101 101" fill="none" xmlns="http://www.w3.org/2000/svg">
<g clip-path="url(#clip0_259_354)" filter="url(#filter0_i_259_354)">
<path d="M65.2292 23.1458C62.9146 23.1458 60.9325 22.321 59.2828 20.6713C57.6331 19.0217 56.8097 17.041 56.8125 14.7292C56.8125 12.4146 57.6373 10.4325 59.287 8.7828C60.9367 7.13313 62.9174 6.3097 65.2292 6.31251C67.5438 6.31251 69.5259 7.13734 71.1755 8.78701C72.8252 10.4367 73.6486 12.4174 73.6458 14.7292C73.6458 17.0438 72.821 19.0259 71.1713 20.6755C69.5217 22.3252 67.541 23.1486 65.2292 23.1458ZM50.5 79.9583C49.3076 79.9583 48.3075 79.5543 47.4995 78.7463C46.6915 77.9383 46.2889 76.9396 46.2917 75.75V58.9167L32.825 47.1333C31.8431 46.2917 31.1767 45.4149 30.826 44.5031C30.4753 43.5913 30.3 42.5042 30.3 41.2417C30.3 39.9792 30.4936 38.9089 30.8808 38.0307C31.2679 37.1526 31.916 36.259 32.825 35.35L44.6083 23.5667C45.5201 22.6549 46.4853 22.0054 47.5037 21.6182C48.5221 21.231 49.6611 21.0389 50.9208 21.0417C52.1833 21.0417 53.3238 21.2353 54.3422 21.6224C55.3606 22.0096 56.3243 22.6577 57.2333 23.5667L65.2292 31.5625C66.7722 33.1056 68.4738 34.4031 70.3339 35.4552C72.194 36.5073 74.2799 37.2087 76.5917 37.5594C77.7139 37.7698 78.6257 38.2608 79.3271 39.0323C80.0285 39.8038 80.3792 40.7156 80.3792 41.7677C80.3792 43.1004 79.9233 44.1707 79.0115 44.9787C78.0997 45.7867 77.0476 46.1191 75.8552 45.9761C72.4885 45.4851 69.3856 44.5031 66.5464 43.0302C63.7072 41.5573 61.1639 39.6986 58.9167 37.4542L55.55 34.0875L45.45 44.1875L52.3938 51.4469C53.1653 52.2184 53.7446 53.1134 54.1318 54.1318C54.519 55.1502 54.7111 56.1841 54.7083 57.2333V75.75C54.7083 76.9424 54.3043 77.9426 53.4963 78.7505C52.6883 79.5585 51.6896 79.9612 50.5 79.9583ZM21.0417 92.5833C15.0799 92.5833 10.0818 90.5662 6.04738 86.5318C2.01299 82.4974 -0.00280263 77.5007 2.92448e-06 71.5417C2.92448e-06 65.5799 2.0172 60.5818 6.05159 56.5474C10.086 52.513 15.0827 50.4972 21.0417 50.5C27.0035 50.5 32.0016 52.5172 36.036 56.5516C40.0704 60.586 42.0861 65.5827 42.0833 71.5417C42.0833 77.5035 40.0661 82.5016 36.0318 86.536C31.9974 90.5704 27.0007 92.5862 21.0417 92.5833ZM21.0417 86.2708C25.0396 86.2708 28.4946 84.8148 31.4068 81.9026C34.319 78.9904 35.7736 75.5368 35.7708 71.5417C35.7708 67.5438 34.3148 64.0887 31.4026 61.1766C28.4904 58.2644 25.0368 56.8097 21.0417 56.8125C17.0438 56.8125 13.5887 58.2686 10.6765 61.1808C7.76438 64.0929 6.3097 67.5466 6.3125 71.5417C6.3125 75.5396 7.76859 78.9946 10.6808 81.9068C13.5929 84.819 17.0466 86.2737 21.0417 86.2708ZM79.9583 92.5833C73.9965 92.5833 68.9984 90.5662 64.9641 86.5318C60.9297 82.4974 58.9139 77.5007 58.9167 71.5417C58.9167 65.5799 60.9339 60.5818 64.9683 56.5474C69.0026 52.513 73.9993 50.4972 79.9583 50.5C85.9201 50.5 90.9182 52.5172 94.9526 56.5516C98.987 60.586 101.003 65.5827 101 71.5417C101 77.5035 98.9828 82.5016 94.9484 86.536C90.914 90.5704 85.9173 92.5862 79.9583 92.5833ZM79.9583 86.2708C83.9563 86.2708 87.4113 84.8148 90.3235 81.9026C93.2356 78.9904 94.6903 75.5368 94.6875 71.5417C94.6875 67.5438 93.2314 64.0887 90.3193 61.1766C87.4071 58.2644 83.9534 56.8097 79.9583 56.8125C75.9604 56.8125 72.5054 58.2686 69.5932 61.1808C66.681 64.0929 65.2264 67.5466 65.2292 71.5417C65.2292 75.5396 66.6852 78.9946 69.5974 81.9068C72.5096 84.819 75.9632 86.2737 79.9583 86.2708Z" fill="#333333"/>
</g>
<defs>
<filter id="filter0_i_259_354" x="0" y="0" width="101" height="105" filterUnits="userSpaceOnUse" color-interpolation-filters="sRGB">
<feFlood flood-opacity="0" result="BackgroundImageFix"/>
<feBlend mode="normal" in="SourceGraphic" in2="BackgroundImageFix" result="shape"/>
<feColorMatrix in="SourceAlpha" type="matrix" values="0 0 0 0 0 0 0 0 0 0 0 0 0 0 0 0 0 0 127 0" result="hardAlpha"/>
<feOffset dy="4"/>
<feGaussianBlur stdDeviation="2"/>
<feComposite in2="hardAlpha" operator="arithmetic" k2="-1" k3="1"/>
<feColorMatrix type="matrix" values="0 0 0 0 0 0 0 0 0 0 0 0 0 0 0 0 0 0 0.25 0"/>
<feBlend mode="normal" in2="shape" result="effect1_innerShadow_259_354"/>
</filter>
<clipPath id="clip0_259_354">
<rect width="101" height="101" fill="white"/>
</clipPath>
</defs>
</svg>
