<svg width="106" height="106" viewBox="0 0 106 106" fill="none" xmlns="http://www.w3.org/2000/svg">
<g clip-path="url(#clip0_259_356)" filter="url(#filter0_i_259_356)">
<path d="M99.375 46.375H87.4955L69.5625 28.442C68.9495 27.8241 68.2199 27.3343 67.4159 27.0009C66.612 26.6675 65.7498 26.4973 64.8795 26.5H18.3347C17.2465 26.502 16.1756 26.7721 15.2165 27.2863C14.2575 27.8004 13.4399 28.543 12.8359 29.4482L0.554844 47.8491C0.193996 48.3944 0.00108011 49.0336 0 49.6875L0 69.5625C0 71.3196 0.697989 73.0047 1.94042 74.2471C3.18285 75.4895 4.86794 76.1875 6.625 76.1875H13.6641C14.3938 79.0377 16.0514 81.5638 18.3755 83.3678C20.6995 85.1718 23.5579 86.151 26.5 86.151C29.4421 86.151 32.3005 85.1718 34.6245 83.3678C36.9486 81.5638 38.6062 79.0377 39.3359 76.1875H66.6641C67.3938 79.0377 69.0514 81.5638 71.3755 83.3678C73.6995 85.1718 76.5579 86.151 79.5 86.151C82.4421 86.151 85.3005 85.1718 87.6245 83.3678C89.9486 81.5638 91.6062 79.0377 92.3359 76.1875H99.375C101.132 76.1875 102.817 75.4895 104.06 74.2471C105.302 73.0047 106 71.3196 106 69.5625V53C106 51.243 105.302 49.5579 104.06 48.3155C102.817 47.073 101.132 46.375 99.375 46.375ZM18.3347 33.125H64.8795L78.1295 46.375H9.52344L18.3347 33.125ZM26.5 79.5C25.1897 79.5 23.9088 79.1115 22.8193 78.3835C21.7299 77.6556 20.8807 76.6209 20.3793 75.4103C19.8779 74.1998 19.7467 72.8677 20.0023 71.5826C20.2579 70.2974 20.8889 69.117 21.8154 68.1905C22.7419 67.2639 23.9224 66.633 25.2075 66.3773C26.4927 66.1217 27.8247 66.2529 29.0353 66.7543C30.2458 67.2558 31.2805 68.1049 32.0085 69.1944C32.7365 70.2839 33.125 71.5647 33.125 72.875C33.125 74.6321 32.427 76.3172 31.1846 77.5596C29.9422 78.802 28.2571 79.5 26.5 79.5ZM79.5 79.5C78.1897 79.5 76.9088 79.1115 75.8193 78.3835C74.7299 77.6556 73.8807 76.6209 73.3793 75.4103C72.8779 74.1998 72.7467 72.8677 73.0023 71.5826C73.2579 70.2974 73.8889 69.117 74.8154 68.1905C75.7419 67.2639 76.9224 66.633 78.2075 66.3773C79.4927 66.1217 80.8247 66.2529 82.0353 66.7543C83.2458 67.2558 84.2805 68.1049 85.0085 69.1944C85.7365 70.2839 86.125 71.5647 86.125 72.875C86.125 74.6321 85.427 76.3172 84.1846 77.5596C82.9422 78.802 81.2571 79.5 79.5 79.5Z" fill="#333333"/>
</g>
<defs>
<filter id="filter0_i_259_356" x="0" y="0" width="106" height="110" filterUnits="userSpaceOnUse" color-interpolation-filters="sRGB">
<feFlood flood-opacity="0" result="BackgroundImageFix"/>
<feBlend mode="normal" in="SourceGraphic" in2="BackgroundImageFix" result="shape"/>
<feColorMatrix in="SourceAlpha" type="matrix" values="0 0 0 0 0 0 0 0 0 0 0 0 0 0 0 0 0 0 127 0" result="hardAlpha"/>
<feOffset dy="4"/>
<feGaussianBlur stdDeviation="2"/>
<feComposite in2="hardAlpha" operator="arithmetic" k2="-1" k3="1"/>
<feColorMatrix type="matrix" values="0 0 0 0 0 0 0 0 0 0 0 0 0 0 0 0 0 0 0.25 0"/>
<feBlend mode="normal" in2="shape" result="effect1_innerShadow_259_356"/>
</filter>
<clipPath id="clip0_259_356">
<rect width="106" height="106" fill="white"/>
</clipPath>
</defs>
</svg>
