<svg width="90" height="90" viewBox="0 0 213 221" fill="none" xmlns="http://www.w3.org/2000/svg">
<path d="M104.175 0.46875C109.681 0.46875 114.779 2.77697 118.588 6.63488C121.735 9.87574 123.879 13.9572 124.762 18.388C124.762 18.388 125.39 25.068 126.197 33.0938H110.236C108.18 33.0938 106.5 34.9208 106.5 37.1719C106.5 39.423 108.18 41.25 110.236 41.25H127.037C127.323 44.0802 127.625 46.8778 127.902 49.4062H110.236C108.18 49.4062 106.5 51.2333 106.5 53.4844C106.5 55.7355 108.18 57.5625 110.236 57.5625H128.881C130.145 65.2457 142.567 71.9257 146.841 74.2257L147.705 74.6906C149.622 75.7754 152.999 76.9418 157.167 78.3854C174.148 84.2579 204.375 94.7061 204.375 122.812V140.822C204.375 142.722 203.967 144.533 203.315 146.188C201.21 151.425 196.145 155.364 190.265 155.438H204.701C209.024 155.438 212.531 159.1 212.531 163.594C212.531 168.088 209.024 171.75 204.701 171.75H187.655C191.705 175.719 194.482 180.804 195.631 186.357C196.78 191.911 196.249 197.68 194.105 202.93C191.962 208.18 188.303 212.673 183.596 215.836C178.889 218.998 173.347 220.687 167.676 220.687C162.005 220.687 156.463 218.998 151.756 215.836C147.049 212.673 143.39 208.18 141.247 202.93C139.103 197.68 138.572 191.911 139.721 186.357C140.87 180.804 143.647 175.719 147.697 171.75H65.2946C69.3452 175.719 72.122 180.804 73.2708 186.357C74.4197 191.911 73.8885 197.68 71.7451 202.93C69.6018 208.18 65.9432 212.673 61.2362 215.836C56.5291 218.998 50.9867 220.687 45.3159 220.687C39.645 220.687 34.1027 218.998 29.3956 215.836C24.6885 212.673 21.03 208.18 18.8866 202.93C16.7433 197.68 16.2121 191.911 17.361 186.357C18.5098 180.804 21.2866 175.719 25.3372 171.75H8.29875C3.97594 171.75 0.46875 168.088 0.46875 163.594C0.46875 159.1 3.97594 155.438 8.29875 155.438H14.9379C12.0321 155.422 9.19833 154.532 6.80634 152.882C4.41435 151.232 2.57526 148.899 1.52906 146.188C0.841006 144.482 0.481267 142.661 0.46875 140.822V17.5969C0.46875 8.78812 8.71472 1.71666 19.3913 0.697126C19.7501 0.697126 20.0927 0.656343 20.4434 0.615562C20.7895 0.567501 21.1381 0.540265 21.4874 0.533999V0.46875H104.175ZM21.6016 8.70656L21.3651 8.73103H21.308C20.8394 8.79041 20.3687 8.83122 19.8969 8.85337C11.9038 9.71794 8.625 14.5546 8.625 17.5969V24.9375H50.7602C53.1663 24.9375 55.083 24.1545 56.2412 23.2247C57.3994 22.303 57.5625 21.5119 57.5625 21.1448V8.625H29.6437V8.70656H21.6016ZM190.085 147.281C192.336 147.281 194.702 145.715 195.738 143.162C196.042 142.419 196.206 141.625 196.219 140.822V130.969H8.625V140.822C8.625 141.547 8.78812 142.347 9.11437 143.187L9.147 143.268C10.0442 145.626 12.3116 147.281 15.1663 147.281H190.085ZM57.5625 192.141C57.5625 188.896 56.2735 185.784 53.9791 183.49C51.6847 181.195 48.5729 179.906 45.3281 179.906C42.0834 179.906 38.9715 181.195 36.6771 183.49C34.3827 185.784 33.0938 188.896 33.0938 192.141C33.0938 195.385 34.3827 198.497 36.6771 200.792C38.9715 203.086 42.0834 204.375 45.3281 204.375C48.5729 204.375 51.6847 203.086 53.9791 200.792C56.2735 198.497 57.5625 195.385 57.5625 192.141ZM167.672 204.375C170.917 204.375 174.028 203.086 176.323 200.792C178.617 198.497 179.906 195.385 179.906 192.141C179.906 188.896 178.617 185.784 176.323 183.49C174.028 181.195 170.917 179.906 167.672 179.906C164.427 179.906 161.315 181.195 159.021 183.49C156.726 185.784 155.438 188.896 155.438 192.141C155.438 195.385 156.726 198.497 159.021 200.792C161.315 203.086 164.427 204.375 167.672 204.375Z" fill="#333333"/>
</svg>
